<?xml version="1.0" encoding="UTF-8" standalone="no"?>
<svg
   width="338"
   height="112"
   fill="none"
   viewBox="0 0 338 112"
   version="1.1"
   id="svg309"
   sodipodi:docname="group-pancake.svg"
   inkscape:version="1.1.1 (3bf5ae0d25, 2021-09-20)"
   xmlns:inkscape="http://www.inkscape.org/namespaces/inkscape"
   xmlns:sodipodi="http://sodipodi.sourceforge.net/DTD/sodipodi-0.dtd"
   xmlns="http://www.w3.org/2000/svg"
   xmlns:svg="http://www.w3.org/2000/svg">
  <sodipodi:namedview
     id="namedview311"
     pagecolor="#505050"
     bordercolor="#eeeeee"
     borderopacity="1"
     inkscape:pageshadow="0"
     inkscape:pageopacity="0"
     inkscape:pagecheckerboard="0"
     showgrid="false"
     inkscape:zoom="3.4112426"
     inkscape:cx="238.7693"
     inkscape:cy="57.896791"
     inkscape:window-width="1366"
     inkscape:window-height="705"
     inkscape:window-x="-8"
     inkscape:window-y="-8"
     inkscape:window-maximized="1"
     inkscape:current-layer="svg309" />
  <path
     fill="#8f80ba"
     d="m 40.767,18.4553 c -0.1334,-0.8756 -1.3953,-0.8756 -1.5288,0 l -0.79,5.1849 c -0.051,0.3345 -0.3135,0.597 -0.6479,0.6479 l -5.1849,0.7901 c -0.8757,0.1334 -0.8757,1.3953 0,1.5288 l 5.1849,0.79 c 0.3344,0.051 0.5969,0.3135 0.6479,0.6479 l 0.79,5.185 c 0.1335,0.8756 1.3954,0.8756 1.5288,0 l 0.7901,-5.185 C 41.608,27.7105 41.8705,27.448 42.205,27.397 l 5.1849,-0.79 c 0.8756,-0.1335 0.8756,-1.3954 0,-1.5288 L 42.205,24.2881 c -0.3345,-0.0509 -0.597,-0.3134 -0.6479,-0.6479 z"
     opacity="0.5"
     id="path204" />
  <path
     fill="#8f80ba"
     d="m 153.339,71.5398 c -0.133,-0.8756 -1.395,-0.8756 -1.528,0 l -0.791,5.1849 c -0.051,0.3345 -0.313,0.597 -0.647,0.6479 l -5.185,0.7901 c -0.876,0.1334 -0.876,1.3953 0,1.5287 l 5.185,0.7901 c 0.334,0.051 0.596,0.3135 0.647,0.6479 l 0.791,5.1849 c 0.133,0.8757 1.395,0.8757 1.528,0 l 0.79,-5.1849 c 0.051,-0.3344 0.314,-0.5969 0.648,-0.6479 l 5.185,-0.7901 c 0.876,-0.1334 0.876,-1.3953 0,-1.5287 l -5.185,-0.7901 c -0.334,-0.0509 -0.597,-0.3134 -0.648,-0.6479 z"
     opacity="0.5"
     id="path206" />
  <path
     fill="#8f80ba"
     d="m 71.878,6.11024 c 0.1335,-0.87564 1.3954,-0.87564 1.5288,0 l 0.2599,1.70579 c 0.051,0.33446 0.3135,0.59695 0.6479,0.64791 l 1.7058,0.25993 c 0.8757,0.13342 0.8757,1.39533 0,1.52873 l -1.7058,0.26 c -0.3344,0.0509 -0.5969,0.3134 -0.6479,0.6479 l -0.2599,1.7058 c -0.1334,0.8756 -1.3953,0.8756 -1.5288,0 l -0.2599,-1.7058 c -0.0509,-0.3345 -0.3134,-0.597 -0.6479,-0.6479 l -1.7058,-0.26 c -0.8756,-0.1334 -0.8756,-1.39531 0,-1.52873 l 1.7058,-0.25993 c 0.3345,-0.05096 0.597,-0.31345 0.6479,-0.64791 z"
     opacity="0.5"
     id="path208" />
  <path
     fill="#8f80ba"
     d="m 203.239,52.6332 c -0.134,-0.8757 -1.396,-0.8757 -1.529,0 l -0.79,5.1849 c -0.051,0.3345 -0.314,0.5969 -0.648,0.6479 l -5.185,0.7901 c -0.876,0.1334 -0.876,1.3953 0,1.5287 l 5.185,0.7901 c 0.334,0.051 0.597,0.3134 0.648,0.6479 l 0.79,5.1849 c 0.133,0.8757 1.395,0.8757 1.529,0 l 0.79,-5.1849 c 0.051,-0.3345 0.313,-0.5969 0.648,-0.6479 l 5.185,-0.7901 c 0.875,-0.1334 0.875,-1.3953 0,-1.5287 l -5.185,-0.7901 c -0.335,-0.051 -0.597,-0.3134 -0.648,-0.6479 z"
     opacity="0.5"
     id="path212" />
  <path
     fill="#8f80ba"
     d="m 302.281,36.126 c -0.133,-0.8757 -1.395,-0.8757 -1.528,0 l -0.79,5.1849 c -0.051,0.3345 -0.314,0.5969 -0.648,0.6479 l -5.185,0.7901 c -0.876,0.1334 -0.876,1.3953 0,1.5287 l 5.185,0.7901 c 0.334,0.051 0.597,0.3134 0.648,0.6479 l 0.79,5.1849 c 0.133,0.8757 1.395,0.8757 1.528,0 l 0.79,-5.1849 c 0.051,-0.3345 0.314,-0.5969 0.648,-0.6479 l 5.185,-0.7901 c 0.876,-0.1334 0.876,-1.3953 0,-1.5287 l -5.185,-0.7901 c -0.334,-0.051 -0.597,-0.3134 -0.648,-0.6479 z"
     opacity="0.5"
     id="path214" />
  <path
     fill="#8f80ba"
     d="m 238.334,6.28614 c 0.133,-0.87564 1.395,-0.87564 1.528,0 l 0.26,1.7058 c 0.051,0.33445 0.314,0.59694 0.648,0.6479 l 1.706,0.25993 c 0.876,0.13343 0.876,1.39533 0,1.52873 l -1.706,0.26 c -0.334,0.0509 -0.597,0.3134 -0.648,0.6479 l -0.26,1.7058 c -0.133,0.8756 -1.395,0.8756 -1.528,0 l -0.26,-1.7058 c -0.051,-0.3345 -0.314,-0.597 -0.648,-0.6479 l -1.706,-0.26 c -0.876,-0.1334 -0.876,-1.3953 0,-1.52873 l 1.706,-0.25993 c 0.334,-0.05096 0.597,-0.31345 0.648,-0.6479 z"
     opacity="0.5"
     id="path216" />
  <defs
     id="defs307">
    <linearGradient
       id="paint0_linear"
       x1="35.595"
       x2="35.595"
       y1="0"
       y2="32.566"
       gradientUnits="userSpaceOnUse"
       gradientTransform="translate(-94.615973,36.607403)">
      <stop
         stop-color="#404042"
         id="stop286" />
      <stop
         offset="1"
         stop-color="#48484B"
         id="stop288" />
    </linearGradient>
    <linearGradient
       id="paint1_linear"
       x1="33.456"
       x2="28.171"
       y1="65.91"
       y2="75.048"
       gradientUnits="userSpaceOnUse">
      <stop
         stop-color="#404042"
         id="stop291" />
      <stop
         offset="1"
         stop-color="#48484B"
         id="stop293" />
    </linearGradient>
    <linearGradient
       id="paint2_linear"
       x1="50.657"
       x2="46.564"
       y1="54.398"
       y2="105.498"
       gradientUnits="userSpaceOnUse">
      <stop
         stop-color="#404042"
         id="stop296" />
      <stop
         offset="1"
         stop-color="#48484B"
         id="stop298" />
    </linearGradient>
    <clipPath
       id="clip0">
      <rect
         width="168.881"
         height="111.741"
         fill="#fff"
         transform="translate(0 0.00012207)"
         id="rect301" />
    </clipPath>
    <clipPath
       id="clip1">
      <rect
         width="168.881"
         height="111.741"
         fill="#fff"
         transform="translate(169.119)"
         id="rect304" />
    </clipPath>
    <mask
       id="path-8-outside-1"
       width="106.225"
       height="64.962"
       x="-4.736"
       y="47.316"
       fill="#000"
       maskUnits="userSpaceOnUse">
      <rect
         width="106.225"
         height="64.962"
         x="-4.736"
         y="47.316"
         fill="#fff"
         id="rect175" />
      <path
         fill-rule="evenodd"
         d="M51.4654 100.721C39.0173 93.6182 31.0394 83.4916 31.8863 76.5791C31.9157 76.3393 31.8085 76.1017 31.6015 75.977L3.79069 59.22C2.23939 58.2853 1.67403 56.3107 2.49555 54.6966L4.10875 51.527C4.46644 50.8242 5.33902 50.5631 6.02397 50.9539L31.8375 65.6822C31.9471 65.7447 32.0834 65.666 32.0842 65.5399C32.0752 65.2684 32.0768 65.0005 32.0891 64.7365L32.0912 64.3922C32.0912 64.3868 32.097 64.3835 32.1017 64.3861C32.1062 64.3887 32.1118 64.3857 32.1123 64.3806C32.2136 63.1766 32.5445 62.0567 33.122 61.0446C37.5786 53.2338 55.0332 54.7995 72.108 64.5418C89.1828 74.284 99.4119 88.5136 94.9553 96.3244C94.3779 97.3365 93.5822 98.1911 92.5974 98.891C92.5931 98.894 92.5934 98.9005 92.598 98.9031C92.6027 98.9058 92.6028 98.9126 92.5982 98.9154L92.1442 99.1938C92.0834 99.232 92.0219 99.2697 91.9599 99.3068L82.2536 105.259C76.7574 109.547 63.9461 107.842 51.4654 100.721Z"
         clip-rule="evenodd"
         id="path177" />
    </mask>
    <mask
       id="path-10-outside-2"
       width="62.225"
       height="62.225"
       x="59.955"
       y="26.232"
       fill="#000"
       maskUnits="userSpaceOnUse">
      <rect
         width="62.225"
         height="62.225"
         x="59.955"
         y="26.232"
         fill="#fff"
         id="rect182" />
      <path
         fill-rule="evenodd"
         d="M73.8695 72.1137C73.8694 72.1137 73.8694 72.1136 73.8694 72.1136C68.4872 66.7315 71.2637 55.2288 80.0709 46.4217C88.878 37.6146 100.381 34.8381 105.763 40.2202C105.77 40.227 105.776 40.2339 105.783 40.2408L108.243 42.7009C113.626 48.0831 110.849 59.5857 102.042 68.3929C93.2348 77.2 81.7322 79.9765 76.35 74.5944L73.8694 72.1138L73.8695 72.1137Z"
         clip-rule="evenodd"
         id="path184" />
    </mask>
    <mask
       id="path-14-outside-3"
       width="62.225"
       height="62.225"
       x="112.577"
       y="-1.652"
       fill="#000"
       maskUnits="userSpaceOnUse">
      <rect
         width="62.225"
         height="62.225"
         x="112.577"
         y="-1.652"
         fill="#fff"
         id="rect193" />
      <path
         fill-rule="evenodd"
         d="M158.514 46.6039C158.496 46.6226 158.477 46.6412 158.459 46.6597C153.077 52.0418 141.574 49.2653 132.767 40.4582C123.96 31.6512 121.183 20.1488 126.565 14.7666L126.565 14.7663L129.045 12.2857C134.427 6.9036 145.93 9.68011 154.737 18.4872C163.544 27.2944 166.321 38.797 160.939 44.1792L158.514 46.6039Z"
         clip-rule="evenodd"
         id="path195" />
    </mask>
    <mask
       id="path-24-outside-4"
       width="61"
       height="41"
       x="252.769"
       y="70.998"
       fill="#000"
       maskUnits="userSpaceOnUse">
      <rect
         width="61"
         height="41"
         x="252.769"
         y="70.998"
         fill="#fff"
         id="rect218" />
      <path
         fill-rule="evenodd"
         d="M310.906 90.865V92.6651C310.906 101.97 298.563 109.513 283.338 109.513C268.112 109.513 255.769 101.97 255.769 92.6651V90.8458H255.769C255.769 90.8455 255.769 90.8452 255.769 90.845C255.769 81.5404 268.112 73.9976 283.338 73.9976C298.563 73.9976 310.906 81.5404 310.906 90.845C310.906 90.8517 310.906 90.8583 310.906 90.865Z"
         clip-rule="evenodd"
         id="path220" />
    </mask>
    <mask
       id="path-28-outside-5"
       width="51"
       height="37"
       x="257.864"
       y="69.061"
       fill="#000"
       maskUnits="userSpaceOnUse">
      <rect
         width="51"
         height="37"
         x="257.864"
         y="69.061"
         fill="#fff"
         id="rect229" />
      <path
         fill-rule="evenodd"
         d="M305.968 85.9364C305.968 85.9051 305.968 85.8739 305.968 85.8426C305.968 78.2311 295.871 72.0608 283.416 72.0608C270.961 72.0608 260.864 78.2311 260.864 85.8426C260.864 85.8428 260.864 85.8431 260.864 85.8433H260.864V89.3514C260.864 96.9629 270.961 103.133 283.416 103.133C295.871 103.133 305.968 96.9629 305.968 89.3514V85.9364Z"
         clip-rule="evenodd"
         id="path231" />
    </mask>
    <mask
       id="path-32-outside-6"
       width="51"
       height="37"
       x="261.567"
       y="64.517"
       fill="#000"
       maskUnits="userSpaceOnUse">
      <rect
         width="51"
         height="37"
         x="261.567"
         y="64.517"
         fill="#fff"
         id="rect240" />
      <path
         fill-rule="evenodd"
         d="M309.671 81.4412C309.672 81.3938 309.672 81.3463 309.672 81.2988C309.672 73.6873 299.575 67.517 287.12 67.517C274.665 67.517 264.569 73.6868 264.568 81.2978H264.567V84.8059C264.567 92.4174 274.664 98.5877 287.119 98.5877C299.574 98.5877 309.671 92.4174 309.671 84.8059V81.4412Z"
         clip-rule="evenodd"
         id="path242" />
    </mask>
    <mask
       id="path-36-outside-7"
       width="51"
       height="37"
       x="252.464"
       y="57.95"
       fill="#000"
       maskUnits="userSpaceOnUse">
      <rect
         width="51"
         height="37"
         x="252.464"
         y="57.95"
         fill="#fff"
         id="rect251" />
      <path
         fill-rule="evenodd"
         d="M300.568 74.82C300.569 74.7907 300.569 74.7614 300.569 74.732C300.569 67.1205 290.472 60.9502 278.017 60.9502C265.562 60.9502 255.465 67.1205 255.465 74.732C255.465 74.7322 255.465 74.7324 255.465 74.7325H255.464V78.2406C255.464 85.8521 265.561 92.0224 278.016 92.0224C290.472 92.0224 300.568 85.8521 300.568 78.2406V74.82Z"
         clip-rule="evenodd"
         id="path253" />
    </mask>
    <mask
       id="path-40-outside-8"
       width="62.667"
       height="57.543"
       x="213.944"
       y="15.698"
       fill="#000"
       maskUnits="userSpaceOnUse">
      <rect
         width="62.667"
         height="57.543"
         x="213.944"
         y="15.698"
         fill="#fff"
         id="rect262" />
      <path
         fill-rule="evenodd"
         d="M265.677 34.5943C265.689 34.6146 265.701 34.6349 265.713 34.6553C269.518 41.2471 263.859 51.6392 253.073 57.8668C242.287 64.0942 230.458 63.7992 226.652 57.2078L226.651 57.2079L224.897 54.1698C221.092 47.5781 226.751 37.186 237.537 30.9584C248.323 24.7308 260.153 25.026 263.959 31.6178L265.677 34.5943Z"
         clip-rule="evenodd"
         id="path264" />
    </mask>
    <mask
       id="path-44-outside-9"
       width="62.225"
       height="62.225"
       x="165.316"
       y="-5.174"
       fill="#000"
       maskUnits="userSpaceOnUse">
      <rect
         width="62.225"
         height="62.225"
         x="165.316"
         y="-5.174"
         fill="#fff"
         id="rect273" />
      <path
         fill-rule="evenodd"
         d="M179.231 40.707C179.231 40.707 179.231 40.7069 179.231 40.7069C173.849 35.3247 176.625 23.8221 185.432 15.0149C194.239 6.20782 205.742 3.43132 211.124 8.81345C211.13 8.81961 211.136 8.82577 211.143 8.83194L213.605 11.2942C218.987 16.6763 216.21 28.179 207.403 36.9861C198.596 45.7932 187.094 48.5698 181.711 43.1876L179.231 40.707L179.231 40.707Z"
         clip-rule="evenodd"
         id="path275" />
    </mask>
  </defs>
</svg>
