<?xml version="1.0" encoding="UTF-8" standalone="no"?>
<svg
   width="266"
   height="176"
   fill="none"
   viewBox="0 0 266 176"
   version="1.1"
   id="svg73"
   sodipodi:docname="left-pancake.svg"
   inkscape:version="1.1.1 (3bf5ae0d25, 2021-09-20)"
   xmlns:inkscape="http://www.inkscape.org/namespaces/inkscape"
   xmlns:sodipodi="http://sodipodi.sourceforge.net/DTD/sodipodi-0.dtd"
   xmlns="http://www.w3.org/2000/svg"
   xmlns:svg="http://www.w3.org/2000/svg">
  <sodipodi:namedview
     id="namedview75"
     pagecolor="#ffffff"
     bordercolor="#666666"
     borderopacity="1.0"
     inkscape:pageshadow="2"
     inkscape:pageopacity="0.0"
     inkscape:pagecheckerboard="0"
     showgrid="false"
     inkscape:zoom="2.0891791"
     inkscape:cx="133.30595"
     inkscape:cy="113.68101"
     inkscape:window-width="1366"
     inkscape:window-height="705"
     inkscape:window-x="-8"
     inkscape:window-y="-8"
     inkscape:window-maximized="1"
     inkscape:current-layer="svg73" />
  <path
     fill="#8f80ba"
     d="m 64.2108,29.0683 c -0.2102,-1.3792 -2.1978,-1.3792 -2.4079,0 l -1.2445,8.1666 c -0.0802,0.5268 -0.4937,0.9402 -1.0205,1.0205 l -8.1666,1.2444 c -1.3792,0.2102 -1.3792,2.1978 0,2.4079 l 8.1666,1.2444 c 0.5268,0.0803 0.9403,0.4937 1.0205,1.0205 l 1.2445,8.1667 c 0.2101,1.3792 2.1977,1.3792 2.4079,0 l 1.2444,-8.1667 c 0.0803,-0.5268 0.4937,-0.9402 1.0205,-1.0205 l 8.1666,-1.2444 c 1.3792,-0.2101 1.3792,-2.1977 0,-2.4079 l -8.1666,-1.2444 c -0.5268,-0.0803 -0.9402,-0.4937 -1.0205,-1.0205 z"
     opacity="0.5"
     id="path45" />
  <path
     fill="#8f80ba"
     d="m 241.521,112.68 c -0.211,-1.379 -2.198,-1.379 -2.408,0 l -1.245,8.167 c -0.08,0.527 -0.493,0.94 -1.02,1.021 l -8.167,1.244 c -1.379,0.21 -1.379,2.198 0,2.408 l 8.167,1.244 c 0.527,0.081 0.94,0.494 1.02,1.021 l 1.245,8.166 c 0.21,1.38 2.197,1.38 2.408,0 l 1.244,-8.166 c 0.08,-0.527 0.494,-0.94 1.02,-1.021 l 8.167,-1.244 c 1.379,-0.21 1.379,-2.198 0,-2.408 l -8.167,-1.244 c -0.526,-0.081 -0.94,-0.494 -1.02,-1.021 z"
     opacity="0.5"
     id="path47" />
  <path
     fill="#8f80ba"
     d="m 113.213,9.62393 c 0.21,-1.3792 2.198,-1.3792 2.408,0 l 0.409,2.68677 c 0.08,0.5268 0.494,0.9402 1.021,1.0205 l 2.686,0.4094 c 1.38,0.2101 1.38,2.1977 0,2.4079 l -2.686,0.4094 c -0.527,0.0803 -0.941,0.4937 -1.021,1.0205 l -0.409,2.6868 c -0.21,1.3792 -2.198,1.3792 -2.408,0 l -0.41,-2.6868 c -0.08,-0.5268 -0.493,-0.9402 -1.02,-1.0205 l -2.687,-0.4094 c -1.379,-0.2102 -1.379,-2.1978 0,-2.4079 l 2.687,-0.4094 c 0.527,-0.0803 0.94,-0.4937 1.02,-1.0205 z"
     opacity="0.5"
     id="path49" />
  <defs
     id="defs71">
    <linearGradient
       id="paint0_linear"
       x1="56.065"
       x2="56.065"
       y1="0"
       y2="51.293"
       gradientUnits="userSpaceOnUse"
       gradientTransform="translate(-149.02671,57.659974)">
      <stop
         stop-color="#404042"
         id="stop53" />
      <stop
         offset="1"
         stop-color="#48484B"
         id="stop55" />
    </linearGradient>
    <linearGradient
       id="paint1_linear"
       x1="52.694"
       x2="44.371"
       y1="103.814"
       y2="118.206"
       gradientUnits="userSpaceOnUse">
      <stop
         stop-color="#404042"
         id="stop58" />
      <stop
         offset="1"
         stop-color="#48484B"
         id="stop60" />
    </linearGradient>
    <linearGradient
       id="paint2_linear"
       x1="79.788"
       x2="73.341"
       y1="85.68"
       y2="166.167"
       gradientUnits="userSpaceOnUse">
      <stop
         stop-color="#404042"
         id="stop63" />
      <stop
         offset="1"
         stop-color="#48484B"
         id="stop65" />
    </linearGradient>
    <clipPath
       id="clip0">
      <rect
         width="266"
         height="176"
         fill="#fff"
         id="rect68" />
    </clipPath>
    <mask
       id="path-8-outside-1"
       width="166.515"
       height="100.494"
       x="-6.653"
       y="75.306"
       fill="#000"
       maskUnits="userSpaceOnUse">
      <rect
         width="166.515"
         height="100.494"
         x="-6.653"
         y="75.306"
         fill="#fff"
         id="rect16" />
      <path
         fill-rule="evenodd"
         d="M81.061 158.642C61.4542 147.455 48.8885 131.505 50.2224 120.618C50.2687 120.24 50.0999 119.866 49.7739 119.669L5.96974 93.2757C3.52632 91.8034 2.63584 88.6933 3.92979 86.151L6.4707 81.1586C7.0341 80.0517 8.40848 79.6404 9.48732 80.256L50.1457 103.454C50.3182 103.553 50.5329 103.429 50.5341 103.23C50.52 102.802 50.5225 102.38 50.5418 101.964L50.5451 101.422C50.5452 101.414 50.5543 101.409 50.5617 101.413C50.5688 101.417 50.5776 101.412 50.5783 101.404C50.738 99.5077 51.2591 97.7438 52.1687 96.1496C59.1881 83.847 86.6805 86.3131 113.575 101.658C140.469 117.003 156.58 139.415 149.561 151.718C148.651 153.312 147.398 154.658 145.847 155.76C145.84 155.765 145.841 155.775 145.848 155.78C145.855 155.784 145.855 155.794 145.848 155.799L145.134 156.237C145.038 156.297 144.941 156.357 144.843 156.416L129.555 165.79C120.898 172.545 100.719 169.858 81.061 158.642Z"
         clip-rule="evenodd"
         id="path18" />
    </mask>
    <mask
       id="path-10-outside-2"
       width="96.166"
       height="96.166"
       x="95.373"
       y="42.343"
       fill="#000"
       maskUnits="userSpaceOnUse">
      <rect
         width="96.166"
         height="96.166"
         x="95.373"
         y="42.343"
         fill="#fff"
         id="rect23" />
      <path
         fill-rule="evenodd"
         d="M116.349 113.584C116.349 113.584 116.349 113.584 116.349 113.584C107.872 105.107 112.245 86.9894 126.117 73.1175C139.989 59.2456 158.107 54.8724 166.584 63.3497C166.591 63.3568 166.598 63.364 166.605 63.3712L170.491 67.257C178.968 75.7342 174.595 93.8518 160.723 107.724C146.851 121.596 128.734 125.969 120.257 117.491L116.349 113.584Z"
         clip-rule="evenodd"
         id="path25" />
    </mask>
    <mask
       id="path-14-outside-3"
       width="96.166"
       height="96.166"
       x="178.343"
       y="-1.698"
       fill="#000"
       maskUnits="userSpaceOnUse">
      <rect
         width="96.166"
         height="96.166"
         x="178.343"
         y="-1.698"
         fill="#fff"
         id="rect34" />
      <path
         fill-rule="evenodd"
         d="M249.649 73.4269C249.627 73.4488 249.606 73.4705 249.584 73.4923C241.107 81.9695 222.989 77.5963 209.117 63.7244C195.246 49.8528 190.872 31.7358 199.349 23.2583L199.349 23.258L203.256 19.3509C211.733 10.8737 229.851 15.2469 243.722 29.1187C257.594 42.9906 261.968 61.1082 253.49 69.5855L249.649 73.4269Z"
         clip-rule="evenodd"
         id="path36" />
    </mask>
  </defs>
</svg>
