<?xml version="1.0" encoding="UTF-8" standalone="no"?>
<svg
   width="266"
   height="176"
   fill="none"
   viewBox="0 0 266 176"
   version="1.1"
   id="svg81"
   sodipodi:docname="right-pancake.svg"
   inkscape:version="1.1.1 (3bf5ae0d25, 2021-09-20)"
   xmlns:inkscape="http://www.inkscape.org/namespaces/inkscape"
   xmlns:sodipodi="http://sodipodi.sourceforge.net/DTD/sodipodi-0.dtd"
   xmlns="http://www.w3.org/2000/svg"
   xmlns:svg="http://www.w3.org/2000/svg">
  <sodipodi:namedview
     id="namedview83"
     pagecolor="#ffffff"
     bordercolor="#666666"
     borderopacity="1.0"
     inkscape:pageshadow="2"
     inkscape:pageopacity="0.0"
     inkscape:pagecheckerboard="0"
     showgrid="false"
     inkscape:zoom="1.4772727"
     inkscape:cx="149.26154"
     inkscape:cy="77.507692"
     inkscape:window-width="1024"
     inkscape:window-height="705"
     inkscape:window-x="1358"
     inkscape:window-y="-8"
     inkscape:window-maximized="1"
     inkscape:current-layer="svg81" />
  <path
     fill="#8f80ba"
     d="m 53.7406,82.9012 c -0.2102,-1.3792 -2.1978,-1.3793 -2.408,-1e-4 l -1.2444,8.1667 c -0.0802,0.5268 -0.4937,0.9402 -1.0205,1.0205 l -8.1666,1.2444 c -1.3792,0.2101 -1.3792,2.1977 0,2.4079 l 8.1666,1.2444 c 0.5268,0.0803 0.9403,0.4937 1.0205,1.0205 l 1.2444,8.1665 c 0.2102,1.379 2.1978,1.379 2.408,0 l 1.2444,-8.1665 c 0.0802,-0.5268 0.4937,-0.9402 1.0205,-1.0205 l 8.1666,-1.2444 c 1.3792,-0.2102 1.3792,-2.1978 0,-2.4079 L 56.0055,92.0883 C 55.4787,92.008 55.0652,91.5946 54.985,91.0678 Z"
     opacity="0.5"
     id="path2" />
  <path
     fill="#8f80ba"
     d="m 209.741,56.9012 c -0.211,-1.3792 -2.198,-1.3793 -2.408,-1e-4 l -1.245,8.1667 c -0.08,0.5268 -0.493,0.9402 -1.02,1.0205 l -8.167,1.2444 c -1.379,0.2101 -1.379,2.1977 0,2.4079 l 8.167,1.2444 c 0.527,0.0803 0.94,0.4937 1.02,1.0205 l 1.245,8.1666 c 0.21,1.3792 2.197,1.3792 2.408,0 l 1.244,-8.1666 c 0.08,-0.5268 0.494,-0.9402 1.02,-1.0205 l 8.167,-1.2444 c 1.379,-0.2102 1.379,-2.1978 0,-2.4079 l -8.167,-1.2444 c -0.526,-0.0803 -0.94,-0.4937 -1.02,-1.0205 z"
     opacity="0.5"
     id="path4" />
  <path
     fill="#8f80ba"
     d="m 109.018,9.90115 c 0.21,-1.3792 2.198,-1.3792 2.408,0 l 0.409,2.68675 c 0.08,0.5268 0.494,0.9402 1.021,1.0205 l 2.686,0.4094 c 1.38,0.2102 1.38,2.1978 0,2.4079 l -2.686,0.4094 c -0.527,0.0803 -0.941,0.4937 -1.021,1.0205 l -0.409,2.6868 c -0.21,1.3792 -2.198,1.3792 -2.408,0 l -0.41,-2.6868 c -0.08,-0.5268 -0.493,-0.9402 -1.02,-1.0205 l -2.687,-0.4094 c -1.379,-0.2101 -1.379,-2.1977 0,-2.4079 l 2.687,-0.4094 c 0.527,-0.0803 0.94,-0.4937 1.02,-1.0205 z"
     opacity="0.5"
     id="path6" />
  <defs
     id="defs79">
    <clipPath
       id="clip0">
      <rect
         width="266"
         height="176"
         fill="#fff"
         id="rect76" />
    </clipPath>
    <mask
       id="path-4-outside-1"
       width="95"
       height="64"
       x="132.48"
       y="112.552"
       fill="#000"
       maskUnits="userSpaceOnUse">
      <rect
         width="95"
         height="64"
         x="132.48"
         y="112.552"
         fill="#fff"
         id="rect8" />
      <path
         fill-rule="evenodd"
         d="M223.325 143.127V145.955C223.325 160.61 203.884 172.491 179.903 172.491C155.921 172.491 136.48 160.61 136.48 145.955V143.089H136.48C136.48 143.088 136.48 143.088 136.48 143.088C136.48 128.432 155.921 116.552 179.903 116.552C203.884 116.552 223.325 128.432 223.325 143.088C223.325 143.101 223.325 143.114 223.325 143.127Z"
         clip-rule="evenodd"
         id="path10" />
    </mask>
    <mask
       id="path-8-outside-2"
       width="79"
       height="57"
       x="140.504"
       y="109.501"
       fill="#000"
       maskUnits="userSpaceOnUse">
      <rect
         width="79"
         height="57"
         x="140.504"
         y="109.501"
         fill="#fff"
         id="rect19" />
      <path
         fill-rule="evenodd"
         d="M215.547 135.31C215.547 135.276 215.547 135.242 215.547 135.208C215.547 123.22 199.644 113.501 180.026 113.501C160.408 113.501 144.505 123.22 144.505 135.208C144.505 135.209 144.505 135.209 144.505 135.21H144.504V140.735C144.504 152.724 160.408 162.442 180.026 162.442C199.643 162.442 215.547 152.724 215.547 140.735V135.31Z"
         clip-rule="evenodd"
         id="path21" />
    </mask>
    <mask
       id="path-12-outside-3"
       width="79"
       height="57"
       x="146.337"
       y="102.344"
       fill="#000"
       maskUnits="userSpaceOnUse">
      <rect
         width="79"
         height="57"
         x="146.337"
         y="102.344"
         fill="#fff"
         id="rect30" />
      <path
         fill-rule="evenodd"
         d="M221.38 128.232C221.381 128.172 221.381 128.112 221.381 128.052C221.381 116.063 205.478 106.344 185.86 106.344C166.243 106.344 150.34 116.062 150.339 128.05H150.337V133.576C150.337 145.564 166.241 155.283 185.859 155.283C205.476 155.283 221.38 145.564 221.38 133.576V128.232Z"
         clip-rule="evenodd"
         id="path32" />
    </mask>
    <mask
       id="path-16-outside-4"
       width="79"
       height="57"
       x="132"
       y="92.001"
       fill="#000"
       maskUnits="userSpaceOnUse">
      <rect
         width="79"
         height="57"
         x="132"
         y="92.001"
         fill="#fff"
         id="rect41" />
      <path
         fill-rule="evenodd"
         d="M207.042 117.82C207.043 117.783 207.043 117.746 207.043 117.708C207.043 105.72 191.139 96.0011 171.522 96.0011C151.904 96.0011 136 105.72 136 117.708C136 117.709 136 117.709 136 117.709H136V123.235C136 135.224 151.903 144.942 171.521 144.942C191.139 144.942 207.042 135.224 207.042 123.235V117.82Z"
         clip-rule="evenodd"
         id="path43" />
    </mask>
    <mask
       id="path-20-outside-5"
       width="96.916"
       height="88.863"
       x="71.507"
       y="25.506"
       fill="#000"
       maskUnits="userSpaceOnUse">
      <rect
         width="96.916"
         height="88.863"
         x="71.507"
         y="25.506"
         fill="#fff"
         id="rect52" />
      <path
         fill-rule="evenodd"
         d="M152.096 54.5052C152.111 54.5317 152.127 54.5582 152.142 54.5848C158.136 64.9673 149.223 81.3356 132.233 91.1445C115.244 100.953 96.6127 100.488 90.6179 90.1066L90.6176 90.1068L87.8549 85.3216C81.8606 74.9391 90.7739 58.5707 107.763 48.7618C124.753 38.9529 143.385 39.4179 149.379 49.8004L152.096 54.5052Z"
         clip-rule="evenodd"
         id="path54" />
    </mask>
    <mask
       id="path-24-outside-6"
       width="96.166"
       height="96.166"
       x="-5.05"
       y="-7.124"
       fill="#000"
       maskUnits="userSpaceOnUse">
      <rect
         width="96.166"
         height="96.166"
         x="-5.05"
         y="-7.124"
         fill="#fff"
         id="rect63" />
      <path
         fill-rule="evenodd"
         d="M15.9268 64.1166C15.9267 64.1165 15.9267 64.1165 15.9267 64.1164C7.44941 55.6392 11.8226 37.5216 25.6945 23.6497C39.5664 9.77785 57.6839 5.40465 66.1612 13.8819C66.1684 13.8891 66.1755 13.8962 66.1827 13.9034L70.0684 17.7892C78.5457 26.2664 74.1725 44.384 60.3006 58.2559C46.4287 72.1278 28.3112 76.501 19.8339 68.0237L15.9268 64.1166Z"
         clip-rule="evenodd"
         id="path65" />
    </mask>
  </defs>
</svg>
